<?xml version="1.0" encoding="UTF-8" standalone="no"?>
<!-- Created with Inkscape (http://www.inkscape.org/) -->

<svg
   width="1114.073mm"
   height="176.38901mm"
   viewBox="0 0 1114.073 176.38901"
   version="1.1"
   id="svg5"
   sodipodi:docname="string.svg"
   inkscape:version="1.2.2 (732a01da63, 2022-12-09)"
   xmlns:inkscape="http://www.inkscape.org/namespaces/inkscape"
   xmlns:sodipodi="http://sodipodi.sourceforge.net/DTD/sodipodi-0.dtd"
   xmlns="http://www.w3.org/2000/svg"
   xmlns:svg="http://www.w3.org/2000/svg">
  <sodipodi:namedview
     id="namedview7"
     pagecolor="#ffffff"
     bordercolor="#000000"
     borderopacity="0.25"
     inkscape:showpageshadow="2"
     inkscape:pageopacity="0.0"
     inkscape:pagecheckerboard="0"
     inkscape:deskcolor="#d1d1d1"
     inkscape:document-units="mm"
     showgrid="false"
     inkscape:zoom="0.16721495"
     inkscape:cx="2451.9339"
     inkscape:cy="1587.7767"
     inkscape:window-width="1409"
     inkscape:window-height="1000"
     inkscape:window-x="2413"
     inkscape:window-y="981"
     inkscape:window-maximized="0"
     inkscape:current-layer="layer1" />
  <defs
     id="defs2" />
  <g
     inkscape:label="Layer 1"
     inkscape:groupmode="layer"
     id="layer1"
     transform="translate(-22.212305,69.816872)">
    <text
       xml:space="preserve"
       style="font-size:176.389px;font-family:'Noto Sans Mono';-inkscape-font-specification:'Noto Sans Mono';display:none;fill:#ffffff;stroke-width:0.1;paint-order:stroke fill markers"
       x="22.212305"
       y="71.294334"
       id="text236"><tspan
         sodipodi:role="line"
         id="tspan234"
         style="font-style:normal;font-variant:normal;font-weight:normal;font-stretch:normal;font-size:176.389px;font-family:'Nu Hanafudaya';-inkscape-font-specification:'Nu Hanafudaya';fill:#000000;stroke-width:0.1"
         x="22.212305"
         y="71.294334">Wanbeiyu</tspan></text>
    <g
       aria-label="Wanbeiyu"
       id="text496"
       style="font-size:176.389px;font-family:'Noto Sans Mono';-inkscape-font-specification:'Noto Sans Mono';display:inline;fill:#ffffff;stroke-width:0.1;paint-order:stroke fill markers">
      <path
         d="M 242.34579,-69.816872 H 218.70966 L 187.31242,22.25819 153.44573,-69.816872 H 132.10266 L 99.294301,21.729023 68.073447,-69.816872 H 22.212305 l 47.97781,141.111206 h 35.277805 l 26.45835,-73.7306048 27.1639,73.7306048 h 35.27781 z"
         style="font-family:'Nu Hanafudaya';-inkscape-font-specification:'Nu Hanafudaya';fill:#000000"
         id="path498" />
      <path
         d="m 308.84429,-28.894622 c -32.80835,0 -53.79865,13.758343 -56.26809,26.4583512 h 40.21669 c 0.35278,-8.1138942 4.93889,-14.8166762 16.0514,-14.8166762 11.99445,0 16.0514,6.702782 16.75696,24.3416827 h -18.16807 c -38.80558,0 -58.03198,15.3458433 -58.03198,34.5722453 0,18.520846 17.46251,32.455578 44.09725,32.455578 13.05279,0 24.16529,-3.527781 32.1028,-9.701396 v 6.879171 h 41.98058 V 19.083188 c 0,-33.337522 -23.10696,-47.97781 -58.73754,-47.97781 z m 0.88195,87.841726 c -9.17223,0 -15.87501,-8.113894 -15.87501,-16.404178 v -4.409725 c 0,-10.230562 7.05556,-17.286123 23.28335,-17.286123 h 8.46667 v 19.931958 c 0,9.172228 -6.70278,18.168068 -15.87501,18.168068 z"
         style="font-family:'Nu Hanafudaya';-inkscape-font-specification:'Nu Hanafudaya';fill:#000000"
         id="path500" />
      <path
         d="m 469.182,-27.48351 c -12.8764,0 -25.92918,4.586114 -34.92502,14.28751 v -10.406952 h -41.98059 v 94.897286 h 41.98059 V 11.67485 c 0,-14.2875098 10.23056,-19.755569 19.57918,-19.755569 9.34861,0 19.57918,5.4680592 19.57918,19.755569 v 59.619484 h 41.98058 V 19.083188 c 0,-32.455577 -23.28335,-46.566698 -46.21392,-46.566698 z"
         style="font-family:'Nu Hanafudaya';-inkscape-font-specification:'Nu Hanafudaya';fill:#000000"
         id="path502" />
      <path
         d="m 609.94034,-26.425176 c -10.58334,0 -20.8139,3.175002 -27.86946,7.761117 V -69.816872 H 540.0903 V 71.294334 h 41.98058 l 0.17639,-4.938892 c 7.05556,4.586114 16.93334,7.761117 27.51669,7.761117 31.04446,0 50.27086,-24.341684 50.27086,-50.270868 0,-25.9291837 -19.05001,-50.270867 -50.09448,-50.270867 z m 5.64445,64.911155 c 0,14.463899 -7.40834,20.461125 -16.75695,20.461125 -9.34862,0 -16.75696,-5.997226 -16.75696,-20.461125 V 9.2054037 c 0,-14.4638986 7.40834,-20.4611247 16.75696,-20.4611247 9.34861,0 16.75695,5.9972261 16.75695,20.4611247 z"
         style="font-family:'Nu Hanafudaya';-inkscape-font-specification:'Nu Hanafudaya';fill:#000000"
         id="path504" />
      <path
         d="m 753.87393,38.133201 v 0.881945 c 0,16.933345 -5.46806,26.281962 -17.6389,26.281962 -12.17084,0 -17.6389,-9.348617 -17.6389,-26.281962 V 23.845691 h 79.72783 c 0,-28.7514079 -26.81113,-52.740313 -62.08893,-52.740313 -35.2778,0 -62.08893,23.9889051 -62.08893,52.740313 0,28.751409 26.81113,52.740314 62.08893,52.740314 25.04724,0 51.3292,-13.052787 59.79587,-38.452804 z m -17.6389,-55.738926 c 12.17084,0 17.6389,9.348617 17.6389,26.2819617 v 1.4111123 h -35.2778 V 8.6762367 c 0,-16.9333447 5.46806,-26.2819617 17.6389,-26.2819617 z"
         style="font-family:'Nu Hanafudaya';-inkscape-font-specification:'Nu Hanafudaya';fill:#000000"
         id="path506" />
      <path
         d="m 859.70736,-41.418241 v -28.398631 h -41.98059 v 28.398631 z m 0,112.712575 v -94.897286 h -41.98059 v 94.897286 z"
         style="font-family:'Nu Hanafudaya';-inkscape-font-specification:'Nu Hanafudaya';fill:#000000"
         id="path508" />
      <path
         d="m 1000.8186,-23.602952 h -21.34304 l -28.9278,53.093092 -30.86808,-53.093092 h -47.62503 l 55.38615,95.250064 -19.05001,34.925028 h 21.34307 z"
         style="font-family:'Nu Hanafudaya';-inkscape-font-specification:'Nu Hanafudaya';fill:#000000"
         id="path510" />
      <path
         d="m 1136.2853,-23.602952 h -41.9806 v 59.619485 c 0,14.28751 -10.2305,19.755569 -19.5791,19.755569 -9.3487,0 -19.5792,-5.468059 -19.5792,-19.755569 v -59.619485 h -41.9806 v 52.211147 c 0,32.455577 23.2833,46.566698 46.2139,46.566698 12.8764,0 25.9292,-4.586115 34.925,-14.28751 v 10.406951 h 41.9806 z"
         style="font-family:'Nu Hanafudaya';-inkscape-font-specification:'Nu Hanafudaya';fill:#000000"
         id="path512" />
    </g>
  </g>
</svg>
